<?xml version="1.0" encoding="UTF-8" standalone="no"?>
<!-- Created with Inkscape (http://www.inkscape.org/) -->

<svg
   width="69.82592mm"
   height="68.590378mm"
   viewBox="0 0 69.825922 68.59038"
   version="1.1"
   id="svg1"
   xml:space="preserve"
   xmlns="http://www.w3.org/2000/svg"
   xmlns:svg="http://www.w3.org/2000/svg"><defs
     id="defs1"><clipPath
       clipPathUnits="userSpaceOnUse"
       id="clipPath3"><path
         style="fill:#ffffff;fill-opacity:0;stroke:#000000;stroke-width:0.09925;stroke-dasharray:none"
         d="m 53.938831,155.24761 v 52.6435 l 23.432006,-6.37966 24.008253,6.53655 22.22587,-6.05128 v -58.58224 l -22.75998,6.1967 -22.462132,-6.11561 -24.603804,6.6987 z"
         id="path3" /></clipPath><clipPath
       clipPathUnits="userSpaceOnUse"
       id="clipPath4"><path
         style="fill:#ffffff;fill-opacity:0;stroke:#000000;stroke-width:0.09925;stroke-dasharray:none"
         d="m 56.105829,151.12576 v 52.6435 l 23.432006,-6.37966 24.008255,6.53655 22.22587,-6.05128 v -58.58224 l -22.75998,6.1967 -22.462134,-6.11561 -24.603804,6.6987 z"
         id="path5" /></clipPath></defs><path
     style="display:inline;fill:#ffffff;fill-opacity:0;stroke:#000000;stroke-width:3.19952;stroke-dasharray:none"
     d="m 57.433308,152.28073 v 49.90149 l 22.569098,-6.04737 23.124124,6.19609 21.40738,-5.73609 v -55.53091 l -21.92182,5.87394 -21.634941,-5.79707 -23.697744,6.34979 z"
     id="path1-7"
     transform="matrix(1,0,0,1.0612199,-55.946042,-147.82011)"
     clip-path="url(#clipPath4)" /><path
     id="path4"
     clip-path="url(#clipPath3)"
     style="display:inline;fill:none;fill-opacity:1;stroke:#000000;stroke-width:3.19952;stroke-dasharray:none"
     transform="matrix(1,0,0,1.0612199,-53.779044,-152.1943)"
     d="M 32.268744,215.91533 131.10531,105.36442 81.099539,232.58551 m 19.787811,-80.74638 v 55.28908 M 122.87933,106.26538 10.888026,151.48584 M 189.65752,173.36009 10.004814,151.83913 169.48478,213.19252 M 10.358099,151.3092 114.04721,232.38808 M 79.24865,145.0384 78.453759,200.23916" /></svg>
